<svg width="20" height="20" viewBox="0 0 20 20" fill="inherit" xmlns="http://www.w3.org/2000/svg">
<path fill-rule="evenodd" clip-rule="evenodd" d="M10 0C4.47686 0 0 4.47686 0 10C0 15.5231 4.47686 20 10 20C15.5231 20 20 15.5225 20 10C20 4.47752 15.5231 0 10 0ZM10 18.75C5.16748 18.75 1.25 14.8325 1.25 10C1.25 5.16748 5.16748 1.25 10 1.25C14.8325 1.25 18.75 5.16748 18.75 10C18.75 14.8325 14.8325 18.75 10 18.75ZM10.625 9.375H13.75C14.095 9.375 14.375 9.655 14.375 10C14.375 10.345 14.095 10.625 13.75 10.625H10.625V13.75C10.625 14.095 10.345 14.375 10 14.375C9.655 14.375 9.375 14.095 9.375 13.75V10.625H6.25C5.905 10.625 5.625 10.345 5.625 10C5.625 9.655 5.905 9.375 6.25 9.375H9.375V6.25C9.375 5.905 9.655 5.625 10 5.625C10.345 5.625 10.625 5.905 10.625 6.25V9.375Z" fill="inherit"/>
</svg>
