<svg width="17" height="17" viewBox="0 0 17 17" fill="inherit" xmlns="http://www.w3.org/2000/svg">
<path d="M15.8826 15.1293H0.7565C0.338583 15.1293 0 15.4679 0 15.8861C0 16.3037 0.338583 16.6423 0.7565 16.6423H15.8822C16.3002 16.6423 16.6388 16.3037 16.6388 15.8861C16.6384 15.4679 16.2998 15.1293 15.8826 15.1293Z" fill="inherit"/>
<path fill-rule="evenodd" clip-rule="evenodd" d="M0.945274 13.9191C0.945274 13.5012 1.28386 13.1626 1.70177 13.1626V13.1623H1.8909V6.35552H1.70177C1.49317 6.35552 1.32388 6.18623 1.32388 5.97763C1.32388 5.76902 1.49282 5.59973 1.70177 5.59973H14.937C15.1456 5.59973 15.3149 5.76902 15.3149 5.97763C15.3149 6.18623 15.1463 6.35552 14.937 6.35552H14.7482V13.1626H14.937C15.3549 13.1626 15.6935 13.5012 15.6935 13.9191C15.6935 14.337 15.3549 14.676 14.937 14.676H1.70177C1.28386 14.676 0.945274 14.337 0.945274 13.9191ZM13.2352 13.1623V6.35552H10.9664V13.1623H13.2352ZM9.45342 6.35552V13.1623H7.18463V6.35552H9.45342ZM5.67198 6.35552H3.40319V13.1623H5.67198V6.35552Z" fill="inherit"/>
<path d="M0.756499 4.91975H15.8822C15.8847 4.91975 15.8876 4.91975 15.8897 4.91975C16.308 4.91975 16.6462 4.58116 16.6462 4.16325C16.6462 3.83104 16.4323 3.54947 16.1351 3.44747L8.63033 0.0704956C8.43306 -0.0180461 8.20746 -0.0180461 8.00983 0.0704956L0.446249 3.47368C0.12077 3.62031 -0.0580842 3.97377 0.0169991 4.32227C0.0917283 4.67077 0.399853 4.91975 0.756499 4.91975Z" fill="inherit"/>
</svg>
