<svg width="12" height="12" viewBox="0 0 12 12" fill="none" xmlns="http://www.w3.org/2000/svg">
<path d="M11.624 0.332746C11.3382 0.0469621 10.8799 0.0469621 10.5941 0.332746L5.97843 4.94843L1.36274 0.332746C1.07696 0.0469621 0.618622 0.0469621 0.332838 0.332746C0.0470537 0.618531 0.0470537 1.07686 0.332838 1.36265L4.94852 5.97833L0.332838 10.594C0.0470537 10.8798 0.0470537 11.3381 0.332838 11.6239C0.473034 11.7641 0.66176 11.8396 0.845093 11.8396C1.02843 11.8396 1.21715 11.7695 1.35735 11.6239L5.97303 7.00824L10.5887 11.6239C10.7289 11.7641 10.9176 11.8396 11.101 11.8396C11.2897 11.8396 11.473 11.7695 11.6132 11.6239C11.899 11.3381 11.899 10.8798 11.6132 10.594L7.00833 5.97833L11.624 1.36265C11.9098 1.07686 11.9098 0.618531 11.624 0.332746Z" fill="#7B88A0"/>
</svg>
