<svg width="21" height="21" viewBox="0 0 21 21" fill="inherit" xmlns="http://www.w3.org/2000/svg">
<path fill-rule="evenodd" clip-rule="evenodd" d="M0 10.4879C0 4.70489 4.70489 0 10.4879 0C16.271 0 20.9757 4.70489 20.9757 10.4879C20.9757 16.2709 16.2709 20.9757 10.4879 20.9757C4.70489 20.9757 0 16.2709 0 10.4879ZM1.38028 10.4879C1.38028 15.5098 5.46592 19.5956 10.4879 19.5956C15.5098 19.5956 19.5955 15.5098 19.5955 10.4879C19.5955 5.46592 15.5098 1.38028 10.4879 1.38028C5.46592 1.38028 1.38028 5.46592 1.38028 10.4879Z" fill="inherit"/>
<path fill-rule="evenodd" clip-rule="evenodd" d="M11.178 9.86873V5.95031C11.5685 6.09534 11.9093 6.36144 12.1462 6.7213C12.3559 7.03965 12.7839 7.12779 13.1021 6.91818C13.4205 6.70858 13.5086 6.28059 13.2989 5.96224C12.8031 5.20939 12.0391 4.6983 11.178 4.51817V3.42183C11.178 3.04068 10.869 2.73169 10.4879 2.73169C10.1067 2.73169 9.79774 3.04068 9.79774 3.42183V4.5161C8.27026 4.83455 7.1192 6.19107 7.1192 7.81162C7.1192 9.43217 8.27036 10.7889 9.79774 11.1073V15.0258C9.40722 14.8807 9.06648 14.6146 8.82957 14.2548C8.61986 13.9364 8.19188 13.8482 7.87362 14.0579C7.55527 14.2675 7.46713 14.6955 7.67684 15.0138C8.17265 15.7667 8.93664 16.2778 9.79774 16.4579V17.5541C9.79774 17.9353 10.1067 18.2443 10.4879 18.2443C10.869 18.2443 11.178 17.9353 11.178 17.5541V16.46C12.7055 16.1415 13.8566 14.785 13.8566 13.1644C13.8566 11.5439 12.7055 10.1872 11.178 9.86873ZM8.49948 7.81162C8.49948 6.95851 9.04115 6.23149 9.79774 5.9508V9.67244C9.04115 9.39175 8.49948 8.66473 8.49948 7.81162ZM12.4763 13.1644C12.4763 12.3112 11.9346 11.5842 11.178 11.3035V15.0252C11.9347 14.7445 12.4763 14.0175 12.4763 13.1644Z" fill="inherit"/>
</svg>
