<svg width="20" height="15" viewBox="0 0 20 15" fill="inherit" xmlns="http://www.w3.org/2000/svg">
<path fill-rule="evenodd" clip-rule="evenodd" d="M18.1577 0.445983C17.8639 0.14865 17.5106 0 17.0981 0H2.09235C1.67971 0 1.32655 0.148617 1.03253 0.445983C0.738663 0.743382 0.591797 1.10075 0.591797 1.51834V13.0584C0.591797 13.4761 0.738663 13.8335 1.03253 14.1309C1.32655 14.4282 1.67971 14.5769 2.09235 14.5769H17.0981C17.5106 14.5769 17.8638 14.4282 18.1577 14.1309C18.4515 13.8335 18.5986 13.4761 18.5986 13.0584V1.51834C18.5986 1.10075 18.4515 0.743382 18.1577 0.445983ZM17.398 13.0586C17.398 13.141 17.3683 13.212 17.309 13.2723C17.2496 13.3321 17.1792 13.3621 17.0981 13.3621H2.09235C2.01112 13.3621 1.94076 13.3321 1.88137 13.272C1.82201 13.2118 1.79228 13.1408 1.79228 13.0584V7.28846H17.398V13.0586H17.398ZM1.79225 3.64405H17.398V1.51821C17.398 1.43597 17.3683 1.36494 17.3089 1.30471C17.2496 1.24464 17.1792 1.21469 17.098 1.21469H2.09232C2.01112 1.21469 1.94076 1.24478 1.88133 1.30471C1.82188 1.36494 1.79225 1.43597 1.79225 1.51821V3.64405Z" fill="inherit"/>
<rect x="3.16406" y="11.147" width="2.5724" height="0.857466" fill="inherit"/>
<rect x="7.45142" y="11.147" width="3.42986" height="0.857466" fill="inherit"/>
</svg>
