<svg width="20" height="20" viewBox="0 0 20 20" fill="inherit" xmlns="http://www.w3.org/2000/svg">
<path fill-rule="evenodd" clip-rule="evenodd" d="M10.8333 13.3333C13.0833 13.3333 15 11.8333 15.5833 9.75C17.5 8.75 20 7.08333 20 5C20 3.33333 19.1667 2.5 18.3333 2.5H15.8333V0H4.16667V2.5H1.66667C0.833333 2.5 0 3.33333 0 5C0 7 2.5 8.66667 4.41667 9.75C5 11.8333 6.91667 13.3333 9.16667 13.3333V17.5H6.66667C5.75 17.5 5 20 5 20H9.16667H10.8333H15C15 19.0833 14.25 17.5 13.3333 17.5H10.8333V13.3333ZM2.5 4.16667C3.83333 4.25 4.16667 5.66667 4.16667 5.66667V7.5C4.16667 7.5 1.66667 6.66667 1.66667 5C1.66667 4.41667 2 4.16667 2.5 4.16667ZM14.1667 1.66667H5.83333V6.66667C5.83333 10 7.66667 11.6667 10 11.6667C12.3333 11.6667 14.1667 9.91667 14.1667 6.66667V1.66667ZM15.8333 6.5C15.8333 6.5 16.1667 4.25 17.5 4.16667C18.0833 4.16667 18.3333 4.41667 18.3333 5C18.3333 6.66667 15.8333 7.5 15.8333 7.5V6.5Z" fill="inherit"/>
</svg>
