<svg width="20" height="20" viewBox="0 0 20 20" fill="none" xmlns="http://www.w3.org/2000/svg">
<path fill-rule="evenodd" clip-rule="evenodd" d="M19.975 9.98757C19.975 7.31978 18.9362 4.81169 17.0498 2.92528C15.1633 1.03888 12.6553 0 9.98753 0C7.31978 0 4.81169 1.03888 2.92524 2.92528C1.0388 4.81169 0 7.31981 0 9.98757C0 12.6553 1.03888 15.1634 2.92528 17.0498C4.81169 18.9361 7.31978 19.975 9.98753 19.975C12.6553 19.975 15.1633 18.9361 17.0498 17.0498C18.9361 15.1634 19.975 12.6553 19.975 9.98757ZM18.5522 11.7377C18.2149 13.4047 17.397 14.9369 16.167 16.167C14.5164 17.8176 12.3218 18.7266 9.98753 18.7266C7.65318 18.7266 5.45865 17.8176 3.80813 16.167C2.49925 14.8581 1.65727 13.2071 1.36449 11.4157C1.50959 10.7955 1.79131 10.229 2.24963 9.82933C2.44288 9.63232 2.23547 9.04333 1.33599 8.74573C1.49296 7.63536 1.86019 6.57592 2.41783 5.61434C3.49176 5.78509 4.71509 4.57914 5.01659 3.68075C5.40464 3.38704 5.17599 3.15727 4.77318 2.97273C6.27206 1.85371 8.08322 1.24854 9.98753 1.24854C11.3143 1.24854 12.5958 1.54258 13.758 2.09918C13.7126 2.80041 12.8447 2.70652 12.3754 2.16438C12.1486 2.14386 11.8521 2.21633 11.5416 2.34936C10.6099 2.7485 9.55356 3.67221 9.93551 4.09985C10.613 3.6424 11.3801 3.80903 10.8397 4.71154C10.4138 5.37918 10.0222 5.14555 9.62295 4.90732C9.32028 4.72674 9.01319 4.54352 8.68341 4.74824C9.05513 5.07184 7.68154 5.55318 7.27352 5.57536C6.87984 5.51163 7.01814 5.64431 7.21036 5.82872C7.42368 6.03338 7.70341 6.30175 7.39603 6.43603C5.69532 6.71524 8.23438 7.6458 8.27453 6.26884C9.09404 5.81699 9.50254 6.34276 9.93539 6.89987C10.3369 7.41658 10.7593 7.96025 11.55 7.77588C11.0992 7.11491 11.6455 6.33539 12.4935 6.23566C13.3395 6.46996 12.9456 6.80205 12.6082 7.08644C12.3327 7.31873 12.0949 7.5192 12.6013 7.60858C12.5329 7.96383 12.0346 8.17451 11.5191 8.39245C11.1271 8.55823 10.7251 8.7282 10.4948 8.96918C9.7752 8.94971 9.24234 8.49979 8.73131 8.0683C8.02299 7.47022 7.35661 6.90756 6.29315 7.57573C5.04247 7.84393 4.34004 9.58131 4.68034 10.7484C5.24584 12.3796 6.49824 12.5122 7.95738 12.5756C8.84352 13.0348 8.99829 14.2716 9.1481 15.4687C9.22556 16.0877 9.3017 16.6961 9.47693 17.1809C10.2412 17.891 12.4594 19.5854 12.4286 17.4446C12.2243 16.217 13.5028 14.0364 14.3417 12.6057C14.5069 12.3239 14.6551 12.0712 14.7715 11.8606C15.3695 10.8721 14.9982 11.0055 14.4498 11.2026C13.981 11.3711 13.3826 11.5862 13.1495 11.1868C12.9519 10.0287 13.5744 10.1877 14.2882 10.37C14.7585 10.49 15.2683 10.6202 15.6093 10.3904C15.9181 10.5804 16.2959 10.5691 16.6549 10.5583C17.2441 10.5407 17.7826 10.5246 17.8822 11.4021C18.0379 12.2682 18.2893 12.1246 18.5522 11.7377Z" fill="#D1D6DE"/>
</svg>
