<svg width="20" height="15" viewBox="0 0 20 15" fill="inherit" xmlns="http://www.w3.org/2000/svg">
<path fill-rule="evenodd" clip-rule="evenodd" d="M18.3333 15H1.66667C0.75 15 0 14.25 0 13.3333V1.66667C0 0.75 0.75 0 1.66667 0H18.3333C19.25 0 20 0.75 20 1.66667V13.3333C20 14.25 19.25 15 18.3333 15ZM15 1.66667H5H2.5L9.33333 7.83333C9.75 8.25 10.3333 8.25 10.75 7.83333L17.5833 1.66667H15ZM11.1667 9.58333L18.3333 3.25V13.3333H1.66667V3.25L8.83333 9.58333C9.5 10.25 10.5 10.25 11.1667 9.58333Z" fill="inherit"/>
</svg>
