<svg width="18" height="18" viewBox="0 0 18 18" fill="inherit" xmlns="http://www.w3.org/2000/svg">
<path fill-rule="evenodd" clip-rule="evenodd" d="M16.7933 3.49919H15.4856C15.6581 3.22621 15.7719 2.91978 15.8044 2.59571C15.9081 1.56003 15.3626 0.631609 14.434 0.219995C13.5805 -0.158356 12.6213 -0.00368947 11.9306 0.622767L10.2794 2.11926C9.95779 1.76754 9.49551 1.54649 8.98246 1.54649C8.46849 1.54649 8.00547 1.76824 7.68382 2.12105L6.03049 0.622591C5.33867 -0.00386494 4.37986 -0.157935 3.5267 0.220205C2.59835 0.631854 2.05281 1.56059 2.15681 2.59624C2.18933 2.92006 2.30309 3.22635 2.47554 3.49919H1.17161C0.524526 3.49919 0 4.02375 0 4.6708V6.42824C0 6.75175 0.262281 7.01406 0.585825 7.01406H17.3791C17.7026 7.01406 17.9649 6.75178 17.9649 6.42824V4.6708C17.9649 4.02375 17.4404 3.49919 16.7933 3.49919ZM7.22502 3.30392V3.49919H4.46912C3.74098 3.49919 3.16793 2.82038 3.34979 2.06228C3.42989 1.72842 3.67088 1.44382 3.98256 1.29975C4.41056 1.10192 4.88467 1.16543 5.24414 1.4908L7.22551 3.28666L7.22528 3.29395L7.22502 3.30392ZM13.4378 3.49926C14.0482 3.49926 14.5982 3.04905 14.6419 2.44017C14.6826 1.87192 14.3555 1.39817 13.7984 1.23199C13.4102 1.11621 12.9902 1.24319 12.6901 1.51522L10.7394 3.28333C10.7394 3.28647 10.7395 3.2896 10.7396 3.29272C10.7398 3.29647 10.7399 3.30022 10.7399 3.30399V3.49926H13.4378Z" fill="inherit"/>
<path d="M1.17162 8.18567V16.7776C1.17162 17.4247 1.69614 17.9492 2.34323 17.9492H7.81081V8.18567H1.17162Z" fill="inherit"/>
<path d="M10.1541 8.18567V17.9492H15.6216C16.2687 17.9492 16.7933 17.4247 16.7933 16.7776V8.18567H10.1541Z" fill="inherit"/>
</svg>
