<svg width="20" height="17" viewBox="0 0 20 17" fill="inherit" xmlns="http://www.w3.org/2000/svg">
<path d="M1.15952 2.36415H18.8405C19.4812 2.36415 20 1.83577 20 1.18221C20 0.530286 19.4812 0 18.8405 0H1.15952C0.518806 0 0 0.530286 0 1.18221C0 1.83605 0.518806 2.36415 1.15952 2.36415ZM18.8405 7.23896H1.15952C0.518806 7.23896 0 7.76952 0 8.42117C0 9.07528 0.518806 9.60338 1.15952 9.60338H18.8405C19.4812 9.60338 20 9.075 20 8.42117C20 7.76952 19.4812 7.23896 18.8405 7.23896ZM18.8405 14.4779H1.15952C0.518806 14.4779 0 15.0085 0 15.6601C0 16.3142 0.518806 16.8423 1.15952 16.8423H18.8405C19.4812 16.8423 20 16.3134 20 15.6601C20 15.0085 19.4812 14.4779 18.8405 14.4779Z" fill="inherit"/>
</svg>
