<svg width="17" height="13" viewBox="0 0 17 13" fill="inherit" xmlns="http://www.w3.org/2000/svg">
<path d="M15.9198 12.5111H4.71541C4.25363 12.5111 3.87935 12.1368 3.87935 11.6751C3.87935 11.2133 4.25363 10.839 4.71541 10.839H15.9195C16.3813 10.839 16.7556 11.2133 16.7556 11.6751C16.7556 12.1368 16.3816 12.5111 15.9198 12.5111Z" fill="inherit"/>
<path d="M15.9198 7.2632H4.71541C4.25363 7.2632 3.87935 6.88892 3.87935 6.42713C3.87935 5.96534 4.25363 5.59106 4.71541 5.59106H15.9195C16.3813 5.59106 16.7556 5.96534 16.7556 6.42713C16.7559 6.88892 16.3816 7.2632 15.9198 7.2632Z" fill="inherit"/>
<path d="M15.9198 2.01515H4.71541C4.25363 2.01515 3.87935 1.64087 3.87935 1.17908C3.87935 0.717296 4.25363 0.343018 4.71541 0.343018H15.9195C16.3813 0.343018 16.7556 0.717296 16.7556 1.17908C16.7556 1.64087 16.3816 2.01515 15.9198 2.01515Z" fill="inherit"/>
<path d="M1.12284 2.36664C1.74296 2.36664 2.24567 1.86393 2.24567 1.24381C2.24567 0.623683 1.74296 0.120972 1.12284 0.120972C0.502711 0.120972 0 0.623683 0 1.24381C0 1.86393 0.502711 2.36664 1.12284 2.36664Z" fill="inherit"/>
<path d="M1.12284 7.54999C1.74296 7.54999 2.24567 7.04728 2.24567 6.42716C2.24567 5.80703 1.74296 5.30432 1.12284 5.30432C0.502711 5.30432 0 5.80703 0 6.42716C0 7.04728 0.502711 7.54999 1.12284 7.54999Z" fill="inherit"/>
<path d="M1.12284 12.7332C1.74296 12.7332 2.24567 12.2305 2.24567 11.6104C2.24567 10.9903 1.74296 10.4875 1.12284 10.4875C0.502711 10.4875 0 10.9903 0 11.6104C0 12.2305 0.502711 12.7332 1.12284 12.7332Z" fill="inherit"/>
</svg>
