<svg width="18" height="18" viewBox="0 0 18 18" fill="inherit" xmlns="http://www.w3.org/2000/svg">
<path fill-rule="evenodd" clip-rule="evenodd" d="M2.08153 0H6.21534C7.36309 0 8.29688 0.933785 8.29688 2.08153V6.21534C8.29688 7.36309 7.36309 8.29688 6.21534 8.29688H2.08153C0.933785 8.29688 0 7.36309 0 6.21534V2.08153C0 0.933785 0.933785 0 2.08153 0ZM6.21534 6.89062C6.58768 6.89062 6.89062 6.58768 6.89062 6.21534V2.08153C6.89062 1.70919 6.58768 1.40625 6.21534 1.40625H2.08153C1.70919 1.40625 1.40625 1.70919 1.40625 2.08153V6.21534C1.40625 6.58768 1.70919 6.89062 2.08153 6.89062H6.21534Z" fill="inherit"/>
<path fill-rule="evenodd" clip-rule="evenodd" d="M11.8125 0H15.8906C17.0537 0 18 0.946266 18 2.10938V6.1875C18 7.35061 17.0537 8.29688 15.8906 8.29688H11.8125C10.6494 8.29688 9.70312 7.35061 9.70312 6.1875V2.10938C9.70312 0.946266 10.6494 0 11.8125 0ZM15.8906 6.89062C16.2783 6.89062 16.5938 6.5752 16.5938 6.1875V2.10938C16.5938 1.72167 16.2783 1.40625 15.8906 1.40625H11.8125C11.4248 1.40625 11.1094 1.72167 11.1094 2.10938V6.1875C11.1094 6.5752 11.4248 6.89062 11.8125 6.89062H15.8906Z" fill="inherit"/>
<path fill-rule="evenodd" clip-rule="evenodd" d="M2.08153 9.70312H6.21534C7.36309 9.70312 8.29688 10.6369 8.29688 11.7847V15.9185C8.29688 17.0662 7.36309 18 6.21534 18H2.08153C0.933785 18 0 17.0662 0 15.9185V11.7847C0 10.6369 0.933785 9.70312 2.08153 9.70312ZM6.21534 16.5938C6.58768 16.5938 6.89062 16.2908 6.89062 15.9185V11.7847C6.89062 11.4123 6.58768 11.1094 6.21534 11.1094H2.08153C1.70919 11.1094 1.40625 11.4123 1.40625 11.7847V15.9185C1.40625 16.2908 1.70919 16.5938 2.08153 16.5938H6.21534Z" fill="inherit"/>
<path fill-rule="evenodd" clip-rule="evenodd" d="M11.8125 9.70312H15.8906C17.0537 9.70312 18 10.6494 18 11.8125V15.8906C18 17.0537 17.0537 18 15.8906 18H11.8125C10.6494 18 9.70312 17.0537 9.70312 15.8906V11.8125C9.70312 10.6494 10.6494 9.70312 11.8125 9.70312ZM15.8906 16.5938C16.2783 16.5938 16.5938 16.2783 16.5938 15.8906V11.8125C16.5938 11.4248 16.2783 11.1094 15.8906 11.1094H11.8125C11.4248 11.1094 11.1094 11.4248 11.1094 11.8125V15.8906C11.1094 16.2783 11.4248 16.5938 11.8125 16.5938H15.8906Z" fill="inherit"/>
</svg>
