<svg width="20" height="19" viewBox="0 0 20 19" fill="inherit" xmlns="http://www.w3.org/2000/svg">
<path fill-rule="evenodd" clip-rule="evenodd" d="M16.6667 15H18.3333C19.25 15 20 14.25 20 13.3333V1.66667C20 0.75 19.25 0 18.3333 0H1.66667C0.75 0 0 0.75 0 1.66667V13.3333C0 14.25 0.75 15 1.66667 15H10L12.1667 18.5C12.8333 19.1667 13.8333 19.1667 14.5 18.5L16 16.1667L16.6667 15ZM1.66667 1.66667H18.3333V13.3333H15.8333C15.3333 14.1667 15 15 15 15L13.3333 17.5L11.6667 15C11.6667 15 11.25 14.0833 10.8333 13.3333H1.66667V1.66667Z" fill="inherit"/>
</svg>
