<svg width="13" height="17" viewBox="0 0 13 17" fill="inherit" xmlns="http://www.w3.org/2000/svg">
<path fill-rule="evenodd" clip-rule="evenodd" d="M6.50018 0C8.65365 0 10.5895 1.01409 11.811 2.78191C13.0264 4.54078 13.3071 6.76756 12.5617 8.73847C12.3644 9.27141 12.0485 9.79281 11.6241 10.2847L6.92609 15.8031C6.81981 15.928 6.66409 16 6.50018 16C6.33628 16 6.18056 15.928 6.07428 15.8031L1.37497 10.2832C0.952403 9.79412 0.636122 9.27216 0.437153 8.73491C-0.306722 6.76756 -0.0260655 4.54078 1.1894 2.78191C2.41087 1.01409 4.34672 0 6.50018 0ZM10.7762 9.55541C11.1135 9.16438 11.3619 8.75784 11.5141 8.34666C12.1308 6.71591 11.8971 4.87478 10.8905 3.41819C9.88087 1.95691 8.28068 1.11888 6.50018 1.11888C4.71965 1.11888 3.11928 1.95694 2.10968 3.41819C1.10325 4.87478 0.869778 6.71591 1.48497 8.34294C1.63862 8.75806 1.88703 9.16456 2.22418 9.55525L6.50018 14.5777L10.7736 9.55841C10.7743 9.55728 10.7752 9.55634 10.7762 9.55541Z" fill="inherit"/>
<path fill-rule="evenodd" clip-rule="evenodd" d="M3.36731 6.45221C3.36731 4.72465 4.77281 3.31934 6.50018 3.31934C8.22756 3.31934 9.63306 4.72484 9.63306 6.45221C9.63306 8.17977 8.22775 9.58509 6.50018 9.58509C4.77262 9.58509 3.36731 8.17977 3.36731 6.45221ZM4.48618 6.45218C4.48618 7.56268 5.38968 8.46618 6.50018 8.46618C7.61068 8.46618 8.51418 7.56268 8.51418 6.45218C8.51418 5.34168 7.61068 4.43818 6.50018 4.43818C5.38968 4.43818 4.48618 5.34168 4.48618 6.45218Z" fill="inherit"/>
</svg>
