<svg width="20" height="20" viewBox="0 0 20 20" fill="inherit" xmlns="http://www.w3.org/2000/svg">
<path fill-rule="evenodd" clip-rule="evenodd" d="M12.5871 0.344934C15.166 1.03595 17.3215 2.68997 18.6565 5.00216C19.9914 7.31443 20.3462 10.0081 19.6551 12.5871C18.9641 15.1661 17.3101 17.3216 14.9979 18.6565C13.4577 19.5458 11.7483 20 10.0163 20C9.14796 20 8.27409 19.8859 7.41292 19.6551C4.83397 18.9641 2.67843 17.3101 1.34351 14.9979C0.00854564 12.6857 -0.346103 9.99193 0.344913 7.41298C1.03593 4.834 2.68987 2.67853 5.00214 1.34353C7.31444 0.00848925 10.0081 -0.346159 12.5871 0.344934ZM14.4773 17.7551C16.5488 16.5592 18.0305 14.6281 18.6496 12.3177C19.2687 10.0073 18.9509 7.59407 17.755 5.52263C16.559 3.45115 14.628 1.96943 12.3176 1.35036C11.5464 1.14368 10.7632 1.04142 9.98546 1.04142C8.4337 1.04142 6.90249 1.44833 5.52261 2.24501C3.45116 3.44103 1.96944 5.372 1.35034 7.6824C0.731241 9.99282 1.04894 12.4061 2.24487 14.4775C3.44085 16.549 5.37187 18.0307 7.6823 18.6497C9.99269 19.2687 12.4059 18.9511 14.4773 17.7551Z" fill="inherit"/>
<path fill-rule="evenodd" clip-rule="evenodd" d="M8.36921 5.34639L14.796 9.05694C15.137 9.25381 15.3406 9.60647 15.3406 10.0002C15.3406 10.394 15.1371 10.7467 14.7961 10.9436L8.36917 14.6541C8.19867 14.7525 8.0116 14.8018 7.82449 14.8018C7.63742 14.8018 7.45042 14.7526 7.27992 14.6542C6.93882 14.4573 6.73523 14.1046 6.73523 13.7108V6.28971C6.73523 5.89592 6.93886 5.54323 7.27992 5.34635C7.62097 5.14956 8.02816 5.14948 8.36921 5.34639ZM7.84863 13.7527L14.2755 10.0422L14.2755 10.0422C14.2833 10.0376 14.2996 10.0281 14.2996 10.0003C14.2996 9.97241 14.2834 9.96299 14.2755 9.95846L7.84871 6.24792L7.84867 6.24789C7.84386 6.24512 7.83598 6.24057 7.82507 6.24057C7.81804 6.24057 7.8098 6.24245 7.80035 6.24792C7.77621 6.26186 7.77621 6.28069 7.77621 6.28975V13.7108C7.77621 13.7199 7.77621 13.7387 7.80035 13.7527C7.82441 13.7667 7.84078 13.7573 7.84863 13.7527Z" fill="inherit"/>
</svg>
