<svg width="18" height="18" viewBox="0 0 18 18" fill="inherit" xmlns="http://www.w3.org/2000/svg">
<path fill-rule="evenodd" clip-rule="evenodd" d="M13.7742 4.8113C13.7742 7.46869 11.6188 9.62416 8.96136 9.62416C6.30393 9.62416 4.1485 7.45395 4.1485 4.8113C4.1485 2.16865 6.30397 0.0131836 8.96136 0.0131836C11.6188 0.0131836 13.7742 2.15391 13.7742 4.8113ZM12.5046 4.8113C12.5046 2.86251 10.9101 1.26808 8.96136 1.26808C7.01257 1.26808 5.41814 2.86248 5.41814 4.81127C5.41814 6.76006 7.0126 8.35449 8.96136 8.35449C10.9101 8.35449 12.5046 6.76009 12.5046 4.8113Z" fill="inherit"/>
<path fill-rule="evenodd" clip-rule="evenodd" d="M17.347 17.1389H0.634819C0.2805 17.1389 0 16.8584 0 16.5041C0 13.1675 2.71647 10.4658 6.03823 10.4658H11.9436C15.2801 10.4658 17.9818 13.1823 17.9818 16.5041C17.9818 16.8584 17.7013 17.1389 17.347 17.1389ZM11.9436 11.7355H6.03823C3.61704 11.7355 1.62396 13.5514 1.31394 15.8692H16.6679C16.3578 13.5366 14.3648 11.7355 11.9436 11.7355Z" fill="inherit"/>
</svg>
