<svg width="16" height="21" viewBox="0 0 16 21" fill="none" xmlns="http://www.w3.org/2000/svg">
<path fill-rule="evenodd" clip-rule="evenodd" d="M11.9013 2.37962H14.5996C15.3737 2.37962 15.9773 2.983 15.9773 3.75734V4.75928V6.01164H14.7932V18.843C14.7932 19.6173 14.1899 20.2093 13.4155 20.2093H2.56522C1.79088 20.2093 1.19893 19.6173 1.19893 18.843V6.01164H0.00341797V4.75928V3.75734C0.00341797 2.983 0.606772 2.37964 1.38111 2.37964H4.09083V0.626193C4.09083 0.273253 4.36408 0 4.717 0H4.76267H4.80809H11.1498C11.1612 0 11.1841 0.0114323 11.1955 0.0228385C11.2066 0.0114323 11.2295 0 11.2637 0C11.6166 0 11.9013 0.273253 11.9013 0.626193V2.37962ZM10.6375 1.25236H5.34319V2.37962H10.6375V1.25236ZM13.5294 18.843C13.5294 18.9229 13.4952 18.9569 13.4155 18.9569H2.56522C2.48556 18.9569 2.45131 18.9229 2.45131 18.843V6.01161H13.5294V18.843ZM1.26718 4.75926H14.7136V3.75731C14.7136 3.67762 14.6793 3.63197 14.5996 3.63197H1.38109C1.30143 3.63197 1.26718 3.67762 1.26718 3.75731V4.75926Z" fill="#ADB1B5"/>
<path d="M10.2847 7.48035H11.5484V17.841H10.2847V7.48035Z" fill="#ADB1B5"/>
<path d="M7.36987 7.48035H8.63364V17.841H7.36987V7.48035Z" fill="#ADB1B5"/>
<rect x="4.45532" y="7.48035" width="1.26377" height="10.3606" fill="#ADB1B5"/>
</svg>
