<svg width="13" height="14" viewBox="0 0 13 14" fill="inherit" xmlns="http://www.w3.org/2000/svg">
<path fill-rule="evenodd" clip-rule="evenodd" d="M9.42593 8.92169L12.5733 12.2511C12.8396 12.5328 12.8308 12.9819 12.5541 13.2527C12.4238 13.3802 12.2523 13.4503 12.0714 13.4503C11.8804 13.4503 11.7021 13.3731 11.5695 13.2331L8.39823 9.87842C7.49775 10.5221 6.44452 10.8611 5.33929 10.8611C2.39525 10.8611 0 8.42492 0 5.43056C0 2.43619 2.39525 0 5.33929 0C8.28332 0 10.6786 2.43619 10.6786 5.43056C10.6786 6.71217 10.2352 7.94325 9.42593 8.92169ZM9.28571 5.43056C9.28571 3.21725 7.51539 1.41667 5.33929 1.41667C3.16318 1.41667 1.39286 3.21725 1.39286 5.43056C1.39286 7.64386 3.16318 9.44444 5.33929 9.44444C7.51539 9.44444 9.28571 7.64386 9.28571 5.43056Z" fill="inherit"/>
</svg>
