<svg width="14" height="18" viewBox="0 0 14 18" fill="inherit" xmlns="http://www.w3.org/2000/svg">
<path d="M6.34791 5.64078C6.14508 5.41543 5.81536 5.41428 5.6115 5.63963L3.89944 7.54299L3.22752 6.79528C3.02469 6.56993 2.69497 6.56993 2.49215 6.79528C2.28932 7.02063 2.28932 7.38697 2.49215 7.61233L3.53228 8.76798C3.63317 8.88123 3.76631 8.93786 3.89944 8.93786C4.03258 8.93786 4.16572 8.88123 4.26765 8.76913L6.34791 6.45783C6.55073 6.23248 6.55073 5.86614 6.34791 5.64078Z" fill="inherit"/>
<path d="M6.34791 9.8007C6.14508 9.57534 5.81536 9.57419 5.6115 9.79954L3.89944 11.7029L3.22752 10.9563C3.02469 10.731 2.69497 10.731 2.49215 10.9563C2.28932 11.1817 2.28932 11.548 2.49215 11.7734L3.53228 12.929C3.63317 13.0411 3.76631 13.0978 3.89944 13.0978C4.03258 13.0978 4.16572 13.0411 4.26765 12.929L6.34791 10.6177C6.55073 10.3924 6.55073 10.026 6.34791 9.8007Z" fill="inherit"/>
<path d="M10.0822 6.16455H7.77114C7.4522 6.16455 7.19336 6.47516 7.19336 6.85788C7.19336 7.2406 7.4522 7.55122 7.77114 7.55122H10.0822C10.4012 7.55122 10.66 7.2406 10.66 6.85788C10.66 6.47516 10.4012 6.16455 10.0822 6.16455Z" fill="inherit"/>
<path d="M10.0822 11.0178H7.77114C7.4522 11.0178 7.19336 11.3284 7.19336 11.7112C7.19336 12.0939 7.4522 12.4045 7.77114 12.4045H10.0822C10.4012 12.4045 10.66 12.0939 10.66 11.7112C10.66 11.3284 10.4012 11.0178 10.0822 11.0178Z" fill="inherit"/>
<path fill-rule="evenodd" clip-rule="evenodd" d="M12.3356 2.39787H10.14V1.8562C10.14 1.5572 9.89411 1.31453 9.59112 1.31453H8.40003C8.17279 0.684035 7.56243 0.231201 6.84668 0.231201C6.13093 0.231201 5.52056 0.684035 5.29332 1.31453H4.10223C3.79925 1.31453 3.55334 1.5572 3.55334 1.8562V2.39787H1.35779C0.752912 2.39787 0.26001 2.88428 0.26001 3.4812V16.4812C0.26001 17.0781 0.752912 17.5645 1.35779 17.5645H12.3356C12.9404 17.5645 13.4333 17.0781 13.4333 16.4812V3.4812C13.4333 2.88428 12.9404 2.39787 12.3356 2.39787ZM4.65112 2.39787H5.7489C6.05189 2.39787 6.29779 2.1552 6.29779 1.8562C6.29779 1.5572 6.54369 1.31453 6.84668 1.31453C7.14966 1.31453 7.39557 1.5572 7.39557 1.8562C7.39557 2.1552 7.64147 2.39787 7.94445 2.39787H9.04223V3.4812H4.65112V2.39787ZM1.35779 3.4812V16.4812H12.3356V3.4812H10.14V4.02287C10.14 4.32187 9.89411 4.56453 9.59112 4.56453H4.10223C3.79925 4.56453 3.55334 4.32187 3.55334 4.02287V3.4812H1.35779Z" fill="inherit"/>
</svg>
