<svg width="17" height="17" viewBox="0 0 17 17" fill="ninheritone" xmlns="http://www.w3.org/2000/svg">
<path fill-rule="evenodd" clip-rule="evenodd" d="M14.4493 10.4253L16.5626 12.5386C17.1453 13.1212 17.1453 14.0693 16.5626 14.6519L15.7941 15.4204C13.6879 17.5266 10.2793 17.5264 8.17328 15.4204L1.57608 8.81975C-0.52491 6.71875 -0.52491 3.30006 1.57618 1.199L2.34623 0.435625C2.92732 -0.145463 3.87537 -0.145463 4.45802 0.437153L6.5708 2.54329C7.15955 3.13198 7.15145 4.07711 6.57136 4.65717L5.61076 5.61777C5.16826 6.06027 5.16833 6.77636 5.61076 7.21879L9.77443 11.386C10.2157 11.8271 10.9339 11.8273 11.3753 11.3858L12.3359 10.4253C12.9185 9.84264 13.8666 9.84264 14.4493 10.4253ZM3.75414 1.14212C3.55931 0.947352 3.24335 0.947385 3.04914 1.14159L2.69871 1.48896L5.51467 4.30492L5.86692 3.9527C6.06159 3.758 6.06159 3.44293 5.86692 3.24826L3.75414 1.14212ZM8.87785 14.7161L2.28062 8.11534C0.655063 6.48978 0.565713 3.93729 2.00583 2.20499L4.81362 5.01278C4.07585 5.84913 4.10659 7.12356 4.90616 7.92313L9.0697 12.0902L9.06983 12.0903C9.86853 12.889 11.1429 12.9218 11.9803 12.183L14.7881 14.9908C13.0613 16.4285 10.5146 16.3528 8.87785 14.7161ZM15.506 14.2997L15.8582 13.9475C16.0524 13.7533 16.0524 13.4373 15.8582 13.243L13.7448 11.1297C13.5506 10.9354 13.2346 10.9355 13.0404 11.1297L12.6882 11.4819L15.506 14.2997Z" fill="inherit"/>
</svg>
