<?xml version="1.0" encoding="utf-8"?>
<!-- Generator: Adobe Illustrator 17.0.0, SVG Export Plug-In . SVG Version: 6.00 Build 0)  -->
<!DOCTYPE svg PUBLIC "-//W3C//DTD SVG 1.1//EN" "http://www.w3.org/Graphics/SVG/1.1/DTD/svg11.dtd">
<svg version="1.1" id="Layer_1" xmlns="http://www.w3.org/2000/svg" xmlns:xlink="http://www.w3.org/1999/xlink" x="0px" y="0px"
	 width="595.28px" height="841.89px" viewBox="0 0 595.28 841.89" enable-background="new 0 0 595.28 841.89" xml:space="preserve">
<g>
	<text transform="matrix(1 0 0 1 37.7367 341.392)" fill="#26316D" font-family="'ArialRoundedMTBold'" font-size="57.6121">PROFESS  ONAL</text>
	<g>
		<path fill="#136C37" d="M324.186,306.999c1.157,0,2.283-0.001,3.409,0c1.971,0.002,3.943,0.012,5.914-0.001
			c0.305-0.002,0.378,0.095,0.404,0.378c0.304,3.368,0.623,6.734,0.934,10.101c0.309,3.356,0.611,6.713,0.921,10.069
			c0.284,3.073,0.577,6.144,0.862,9.217c0.239,2.573,0.472,5.147,0.708,7.721c0.073,0.794,0.138,1.588,0.224,2.38
			c0.036,0.334-0.056,0.595-0.293,0.831c-2.464,2.451-4.922,4.907-7.385,7.359c-0.423,0.421-0.885,0.412-1.318-0.013
			c-2.475-2.422-4.947-4.848-7.428-7.264c-0.294-0.287-0.408-0.595-0.371-1.005c0.282-3.164,0.552-6.329,0.822-9.494
			c0.262-3.074,0.515-6.149,0.778-9.223c0.262-3.052,0.536-6.102,0.797-9.154c0.308-3.596,0.607-7.193,0.911-10.79
			C324.106,307.75,324.147,307.391,324.186,306.999z"/>
		<path fill="#136C37" d="M329.152,297.273c2.791,0,5.582-0.006,8.373,0.01c0.277,0.002,0.596,0.082,0.821,0.236
			c0.343,0.235,0.349,0.68,0.096,1.106c-1.192,2.005-2.385,4.01-3.578,6.014c-0.262,0.44-0.533,0.875-0.783,1.321
			c-0.101,0.18-0.214,0.256-0.428,0.255c-1.936-0.008-3.873-0.005-5.809-0.004c-1.139,0-2.278-0.003-3.417,0.009
			c-0.224,0.002-0.343-0.071-0.452-0.267c-1.363-2.457-2.737-4.908-4.106-7.363c-0.373-0.67,0.001-1.312,0.773-1.313
			c2.837-0.005,5.673-0.002,8.51-0.002C329.152,297.275,329.152,297.274,329.152,297.273z"/>
	</g>
	<text transform="matrix(1 0 0 1 338.6198 380.6228)"><tspan x="0" y="0" fill="#26326D" font-family="'ArialRoundedMTBold'" font-size="29.6721">ON THE </tspan><tspan x="121.76" y="0" fill="#136B37" font-family="'ArialRoundedMTBold'" font-size="29.6721">GO</tspan></text>
	
		<line fill="none" stroke="#1BA84A" stroke-width="2" stroke-miterlimit="10" x1="342.934" y1="388.253" x2="499.772" y2="388.253"/>
	
		<line fill="none" stroke="#1BA84A" stroke-width="2" stroke-miterlimit="10" x1="499.772" y1="388.253" x2="499.772" y2="421.104"/>
	
		<line fill="none" stroke="#1BA84A" stroke-width="2" stroke-miterlimit="10" x1="499.772" y1="421.104" x2="570.262" y2="350.614"/>
	<line fill="none" stroke="#1BA84A" stroke-width="2" stroke-miterlimit="10" x1="570.262" y1="350.614" x2="504.03" y2="284.382"/>
	<line fill="none" stroke="#1BA84A" stroke-width="2" stroke-miterlimit="10" x1="25.018" y1="331.181" x2="25.018" y2="284.382"/>
	<line fill="none" stroke="#1BA84A" stroke-width="2" stroke-miterlimit="10" x1="25.018" y1="284.382" x2="222.126" y2="284.382"/>
</g>
</svg>
