<svg width="23" height="17" viewBox="0 0 23 17" fill="inherit" xmlns="http://www.w3.org/2000/svg">
<path fill-rule="evenodd" clip-rule="evenodd" d="M21.0093 0.520117C20.6666 0.173359 20.2546 0 19.7735 0H2.27342C1.79219 0 1.38033 0.173321 1.03743 0.520117C0.694716 0.866952 0.523438 1.28372 0.523438 1.77073V15.2291C0.523438 15.7162 0.694716 16.133 1.03743 16.4798C1.38033 16.8266 1.79219 17 2.27342 17H19.7735C20.2546 17 20.6665 16.8266 21.0093 16.4798C21.3519 16.133 21.5234 15.7162 21.5234 15.2291V1.77073C21.5234 1.28372 21.3519 0.866952 21.0093 0.520117ZM20.1233 15.2293C20.1233 15.3254 20.0887 15.4082 20.0194 15.4785C19.9502 15.5483 19.8682 15.5833 19.7735 15.5833H2.27342C2.17869 15.5833 2.09663 15.5483 2.02737 15.4782C1.95814 15.4079 1.92347 15.3251 1.92347 15.2291V8.5H20.1233V15.2293H20.1233ZM1.92343 4.24979H20.1232V1.77058C20.1232 1.67467 20.0887 1.59183 20.0194 1.52159C19.9502 1.45154 19.8681 1.41661 19.7735 1.41661H2.27339C2.17869 1.41661 2.09663 1.45169 2.02733 1.52159C1.95799 1.59183 1.92343 1.67467 1.92343 1.77058V4.24979Z" fill="inherit"/>
<rect x="3.52344" y="13" width="3" height="1" fill="inherit"/>
<rect x="8.52344" y="13" width="4" height="1" fill="inherit"/>
</svg>
