<svg width="25" height="20" viewBox="0 0 25 20" fill="inherit" xmlns="http://www.w3.org/2000/svg">
<path fill-rule="evenodd" clip-rule="evenodd" d="M22.8027 0H2.19727C0.987207 0 0 0.986133 0 2.19727V16.8457C0 18.0527 0.982813 19.043 2.19727 19.043H22.8027C24.0098 19.043 25 18.0602 25 16.8457V2.19727C25 0.990234 24.0172 0 22.8027 0ZM22.4993 1.46484L12.5466 11.4176L2.50776 1.46484H22.4993ZM1.46484 2.4936V16.5424L8.51948 9.48774L1.46484 2.4936ZM2.50063 17.5781L9.55972 10.519L12.0332 12.9713C12.3195 13.2552 12.7816 13.2542 13.0667 12.969L15.4785 10.5573L22.4994 17.5781H2.50063ZM16.5143 9.52148L23.5352 16.5423V2.50059L16.5143 9.52148Z" fill="inherit"/>
</svg>
