<svg width="27" height="25" viewBox="0 0 27 25" fill="none" xmlns="http://www.w3.org/2000/svg">
<path d="M26.7136 9.52969L13.9401 0.177214C13.6938 -0.00310202 13.3591 -0.00310202 13.1129 0.177214L0.339344 9.52969C0.0273438 9.75816 -0.0404457 10.1963 0.188028 10.5083C0.416502 10.8203 0.85466 10.888 1.16661 10.6596L13.5264 1.6099L25.8863 10.6595C26.0109 10.7508 26.1558 10.7948 26.2993 10.7948C26.5149 10.7948 26.7277 10.6956 26.8648 10.5082C27.0933 10.1963 27.0256 9.75816 26.7136 9.52969Z" fill="#C5CBD7"/>
<path d="M23.3284 10.8181C22.9418 10.8181 22.6282 11.1315 22.6282 11.5182V22.6629H17.0271V16.5794C17.0271 14.6489 15.4564 13.0784 13.526 13.0784C11.5956 13.0784 10.025 14.649 10.025 16.5794V22.6629H4.42375V11.5183C4.42375 11.1316 4.11023 10.8181 3.7236 10.8181C3.33696 10.8181 3.02344 11.1316 3.02344 11.5183V23.3632C3.02344 23.7498 3.33696 24.0633 3.7236 24.0633H10.7251C11.0933 24.0633 11.3946 23.7788 11.4225 23.4177C11.4242 23.4013 11.4253 23.3834 11.4253 23.3632V16.5795C11.4253 15.4211 12.3676 14.4787 13.526 14.4787C14.6844 14.4787 15.6268 15.4212 15.6268 16.5795V23.3632C15.6268 23.3833 15.6278 23.4009 15.6295 23.4171C15.6571 23.7785 15.9585 24.0633 16.3269 24.0633H23.3284C23.7151 24.0633 24.0286 23.7498 24.0286 23.3632V11.5183C24.0285 11.1315 23.7151 10.8181 23.3284 10.8181Z" fill="#C5CBD7"/>
</svg>
