<svg width="25" height="25" viewBox="0 0 25 25" fill="none" xmlns="http://www.w3.org/2000/svg">
<path fill-rule="evenodd" clip-rule="evenodd" d="M23.7871 0.0685976C24.103 -0.0674139 24.47 0.0028553 24.7132 0.246126C24.9565 0.489478 25.0268 0.856363 24.8907 1.17239L14.8685 24.4513C14.7351 24.7612 14.4305 24.9592 14.0971 24.9592C14.0763 24.9592 14.0552 24.9584 14.0341 24.9569C13.6766 24.9301 13.3755 24.6793 13.2845 24.3326L10.6516 14.3077L0.626664 11.6749C0.279927 11.5838 0.0291516 11.2827 0.00235716 10.9252C-0.0243965 10.5678 0.178621 10.2326 0.507863 10.0908L23.7871 0.0685976ZM12.1522 13.4065L14.2899 21.5467L22.5131 2.44617L3.41272 10.6695L11.553 12.8073C11.8462 12.8843 12.0752 13.1133 12.1522 13.4065Z" fill="#C5CBD7"/>
</svg>
