<svg width="20" height="25" viewBox="0 0 20 25" fill="none" xmlns="http://www.w3.org/2000/svg">
<path fill-rule="evenodd" clip-rule="evenodd" d="M10.0007 0C13.3137 0 16.2919 1.56014 18.1711 4.27986C20.0411 6.98582 20.4728 10.4116 19.3261 13.4438C19.0225 14.2637 18.5366 15.0659 17.8836 15.8227L10.6559 24.3124C10.4924 24.5047 10.2528 24.6154 10.0007 24.6154C9.7485 24.6154 9.50894 24.5046 9.34543 24.3124L2.11572 15.8204C1.46562 15.0679 0.979034 14.2649 0.672928 13.4383C-0.471495 10.4116 -0.0397158 6.98582 1.83024 4.27986C3.70942 1.56014 6.68764 0 10.0007 0ZM16.5791 14.7006C17.0981 14.099 17.4803 13.4736 17.7144 12.841C18.6631 10.3322 18.3036 7.49966 16.755 5.25875C15.2017 3.01062 12.7399 1.72135 10.0007 1.72135C7.26139 1.72135 4.79927 3.01067 3.24605 5.25875C1.69769 7.49966 1.33851 10.3322 2.28495 12.8353C2.52134 13.4739 2.90351 14.0993 3.42221 14.7004L10.0007 22.4273L16.5751 14.7052C16.5762 14.7035 16.5777 14.7021 16.5791 14.7006Z" fill="#C5CBD7"/>
<path fill-rule="evenodd" clip-rule="evenodd" d="M5.18066 9.92649C5.18066 7.2687 7.34297 5.10668 10.0005 5.10668C12.658 5.10668 14.8203 7.26899 14.8203 9.92649C14.8203 12.5843 12.6583 14.7463 10.0005 14.7463C7.34268 14.7463 5.18066 12.5843 5.18066 9.92649ZM6.90201 9.92644C6.90201 11.6349 8.29201 13.0249 10.0005 13.0249C11.7089 13.0249 13.0989 11.6349 13.0989 9.92644C13.0989 8.21798 11.7089 6.82798 10.0005 6.82798C8.29201 6.82798 6.90201 8.21798 6.90201 9.92644Z" fill="#C5CBD7"/>
</svg>
