<svg width="20" height="27" viewBox="0 0 20 27" fill="inherit" xmlns="http://www.w3.org/2000/svg">
<path d="M9.75666 10.2451C9.43166 9.92007 8.90333 9.91841 8.57666 10.2434L5.83333 12.9884L4.75666 11.9101C4.43166 11.5851 3.90333 11.5851 3.57833 11.9101C3.25333 12.2351 3.25333 12.7634 3.57833 13.0884L5.245 14.7551C5.40666 14.9184 5.62 15.0001 5.83333 15.0001C6.04666 15.0001 6.26 14.9184 6.42333 14.7567L9.75666 11.4234C10.0817 11.0984 10.0817 10.5701 9.75666 10.2451Z" fill="inherit"/>
<path d="M9.75666 16.9116C9.43166 16.5866 8.90333 16.5849 8.57666 16.9099L5.83333 19.6549L4.75666 18.5782C4.43166 18.2532 3.90333 18.2532 3.57833 18.5782C3.25333 18.9032 3.25333 19.4316 3.57833 19.7566L5.245 21.4232C5.40666 21.5849 5.62 21.6666 5.83333 21.6666C6.04666 21.6666 6.26 21.5849 6.42333 21.4232L9.75666 18.0899C10.0817 17.7649 10.0817 17.2366 9.75666 16.9116Z" fill="inherit"/>
<path d="M15.8333 11.6667H12.5C12.04 11.6667 11.6667 12.0401 11.6667 12.5001C11.6667 12.9601 12.04 13.3334 12.5 13.3334H15.8333C16.2933 13.3334 16.6667 12.9601 16.6667 12.5001C16.6667 12.0401 16.2933 11.6667 15.8333 11.6667Z" fill="inherit"/>
<path d="M15.8333 18.3333H12.5C12.04 18.3333 11.6667 18.7066 11.6667 19.1666C11.6667 19.6266 12.04 19.9999 12.5 19.9999H15.8333C16.2933 19.9999 16.6667 19.6266 16.6667 19.1666C16.6667 18.7066 16.2933 18.3333 15.8333 18.3333Z" fill="inherit"/>
<path fill-rule="evenodd" clip-rule="evenodd" d="M18.3333 3.33333H15V2.5C15 2.04 14.6267 1.66667 14.1667 1.66667H12.3583C12.0133 0.696667 11.0867 0 10 0C8.91333 0 7.98667 0.696667 7.64167 1.66667H5.83333C5.37333 1.66667 5 2.04 5 2.5V3.33333H1.66667C0.748333 3.33333 0 4.08167 0 5V25C0 25.9183 0.748333 26.6667 1.66667 26.6667H18.3333C19.2517 26.6667 20 25.9183 20 25V5C20 4.08167 19.2517 3.33333 18.3333 3.33333ZM6.66667 3.33333H8.33333C8.79333 3.33333 9.16667 2.96 9.16667 2.5C9.16667 2.04 9.54 1.66667 10 1.66667C10.46 1.66667 10.8333 2.04 10.8333 2.5C10.8333 2.96 11.2067 3.33333 11.6667 3.33333H13.3333V5H6.66667V3.33333ZM1.66667 25H18.3333V5H15V5.83333C15 6.29333 14.6267 6.66667 14.1667 6.66667H5.83333C5.37333 6.66667 5 6.29333 5 5.83333V5H1.66667V25Z" fill="inherit"/>
</svg>
