<svg width="23" height="23" viewBox="0 0 23 23" fill="inherit" xmlns="http://www.w3.org/2000/svg">
<path fill-rule="evenodd" clip-rule="evenodd" d="M19.549 14.1048L22.4083 16.964C23.1965 17.7523 23.1965 19.0349 22.4083 19.8232L21.3685 20.8629C18.519 23.7125 13.9073 23.7122 11.058 20.8629L2.13236 11.9326C-0.710159 9.09008 -0.710159 4.46479 2.1325 1.62217L3.17433 0.589375C3.9605 -0.196802 5.24316 -0.196802 6.03145 0.591442L8.88992 3.44093C9.68647 4.23739 9.67551 5.51609 8.89068 6.30088L7.59104 7.60051C6.99237 8.19919 6.99246 9.16802 7.59104 9.7666L13.2242 15.4046C13.8212 16.0014 14.793 16.0016 15.3902 15.4044L16.6898 14.1048C17.478 13.3165 18.7607 13.3165 19.549 14.1048ZM5.07915 1.54522C4.81555 1.28171 4.38807 1.28176 4.12532 1.5445L3.65122 2.01448L7.46104 5.8243L7.93762 5.34777C8.20099 5.08435 8.20099 4.65808 7.93762 4.39471L5.07915 1.54522ZM12.0112 19.91L3.08556 10.9796C0.886275 8.78029 0.76539 5.32693 2.71379 2.98322L6.51256 6.78199C5.5144 7.91353 5.55599 9.63776 6.63776 10.7195L12.2708 16.3573L12.271 16.3574C13.3516 17.4381 15.0757 17.4824 16.2086 16.4829L20.0075 20.2817C17.6712 22.2268 14.2256 22.1244 12.0112 19.91ZM20.9787 19.3467L21.4552 18.8701C21.718 18.6074 21.718 18.1798 21.4552 17.917L18.596 15.0578C18.3332 14.795 17.9056 14.7951 17.6429 15.0578L17.1664 15.5343L20.9787 19.3467Z" fill="inherit"/>
</svg>
