<svg width="24" height="24" viewBox="0 0 24 24" fill="inherit" xmlns="http://www.w3.org/2000/svg">
<path fill-rule="evenodd" clip-rule="evenodd" d="M15.9253 12.6545C17.6226 13.2402 19.1783 14.2077 20.4853 15.5147C22.7518 17.7812 24 20.7947 24 24H22.125C22.125 18.417 17.583 13.875 12 13.875C6.41705 13.875 1.875 18.417 1.875 24H0C0 20.7947 1.24823 17.7812 3.51473 15.5147C4.82175 14.2077 6.37744 13.2402 8.07478 12.6545C6.25683 11.4024 5.0625 9.30694 5.0625 6.9375C5.0625 3.11217 8.17467 0 12 0C15.8253 0 18.9375 3.11217 18.9375 6.9375C18.9375 9.30694 17.7432 11.4024 15.9253 12.6545ZM6.9375 6.9375C6.9375 9.729 9.20855 12 12 12C14.7915 12 17.0625 9.729 17.0625 6.9375C17.0625 4.146 14.7915 1.875 12 1.875C9.20855 1.875 6.9375 4.146 6.9375 6.9375Z" fill="inherit"/>
</svg>
